<?xml version="1.0" encoding="UTF-8"?>
<svg id="Layer_2" data-name="Layer 2" xmlns="http://www.w3.org/2000/svg" viewBox="0 0 1092.91 940.34">
  <defs>
    <style>
      .cls-1 {
        fill: none;
      }

      .cls-2 {
        fill: #fff;
      }
    </style>
  </defs>
  <g id="Layer_1-2" data-name="Layer 1">
    <g>
      <path class="cls-1" d="m688.57,97.35c-.93-9.03-10.82-5.82-16.97-6.77-43.06-6.6-87.33-5.79-130.77-4.85-40.89.89-81.84,2.63-122.69,3.04-2.62.04-25.95.02-25.92,2.33.09,7.31.13,14.59.13,21.89,0,19.09,1.18,38.15,1.5,57.25h0c98.82-.27,197.68,1.56,296.55,3.76-1.6-18.21-2.08-36.42-2.09-54.72,0-7.18.96-14.79.25-21.93Z"/>
      <path class="cls-2" d="m374.82,170.29c-.31-25.21-1.37-50.39-1.63-75.61-.16-14.55,8.09-21.17,21.97-23.68,20.48-3.7,43.84-2.51,64.6-3.02,27.03-.7,54.08-.8,81.1-1.34,29.68-.6,59.47-1.16,89.1.83,19.75,1.32,46.2-.02,64.71,7.39,14.12,5.65,13.19,22.09,12.86,34.65-.59,21.61.08,43.35,2,64.91,14.24.31,28.45.65,42.68.97.67-29.86-.43-59.65-1.63-89.47-.86-21.61.12-43.86-2.15-65.4-74.41-.05-148.82-.76-223.23-1.26-37.76-.26-75.51-.34-113.26.48-30.53.67-61.21,3.42-91.75,3.97h0c3.52,48.96,1.75,98.14,5.74,147.06,16.28-.21,32.59-.38,48.89-.47Z"/>
      <path class="cls-2" d="m1003.38,153.34c-31.01-1.6-62.05-2.34-92.96-5.27h0c-.57,10.2-1.44,20.39-1.71,30.59,31.95.56,63.88,1.02,95.81,1.32-.05-8.91-.27-17.79-1.13-26.64Z"/>
      <path class="cls-2" d="m173.21,150.23c-30.98,2.51-61.99-3.05-92.88.16h0c-.23,10.07-.89,20.03-2.23,30.06,32.46-2.23,64.96-4.04,97.48-5.48-.86-8.24-1.48-16.5-2.36-24.73Z"/>
      <path class="cls-2" d="m1071.87,199.45c-350.57-.48-702.85-25.42-1052.7,4.68.35,117.94,7.8,236.06,10.52,353.96,2.68,116.06-9.87,231.93-5.44,348.02,177.82,18.45,356.85,15.68,535.36,13.71h.02c89.65-.98,179.27.25,268.75-6.63,81.77-6.3,163.39-15.12,245.47-16.01v-7.05c0-230.11-17.89-460.8-1.98-690.68Zm-310.83,434.94c-15.83,2.11-34.27,0-48.76,1.05-27.67,0-43.51-2.39-69.85-1.33-.68,32.71-1.84,66-.71,95.81,0,14.17,3.35,36.42-4.5,44.93-6.74,5.7-30.31,0-38.17,0-43.78,0-87.56,5.7-131.34,5.7-6.72,0-25.8,1.41-30.3-5.7-3.37-7.09-1.13-32.15-1.13-39.25-1.13-26.97,2.68-71.84.42-100.22-4.48,0-8.98-1.11-13.47-1.11-22.45-1.12-44.9,1.11-67.34,1.11h-32.56c-22.45,0-26.95-2.23-26.95-23.55,0-49.42-5.6-97.67-2.24-145.95l2.95-1.52c39.29-6.24,96.53-3.12,135.83,1.25l2.23-.85c2.26-43.77-1.12-90.16-.36-133.64,55-1.12,110.37.06,165.38.06,8.98,0,21.79.31,30.3,1.12,15.71,1.5,10.12,13.48,10.12,30.31,0,20.21,1.13,39.28,1.13,59.5,0,14.58-2.26,30.3,0,43.78l.73.6c31.63-1.07,61.93,4.25,93.54,2.12,7.91,0,27.68-4.25,32.94-2.12,13.19,4.25,7.91,21.25,6.59,32.94h0c-2.62,35.08-2.62,71.2,1.32,107.35,2.64,18.05,6.59,24.42-15.8,27.64Z"/>
      <path d="m1091.54,189.93h0c.38-5.2-4.62-9.54-9.54-9.54-19.46,0-38.95-.1-58.43-.24-.12-12.89-.71-25.61-2.51-38.43-.6-4.29-5.36-6.78-9.2-7-36.88-2.16-73.82-2.59-110.58-6.64-5.26-.57-9.46,4.78-9.54,9.54-.28,13.57-1.74,27.11-2.14,40.69-39.43-.74-78.88-1.61-118.32-2.51.76-32.36-.64-64.69-1.92-97.03-.94-23.46-.06-47.1-3.36-70.33-.6-4.13-5.38-7.01-9.21-7.01-74.7,0-149.38-.59-224.07-1.23-37.74-.31-75.48-.34-113.22.28-36.48.59-73.1,4.22-109.54,4.22-4.86,0-10.01,4.34-9.54,9.54,4.52,52.16,2.17,104.59,6.39,156.78-37.47.64-74.9,1.66-112.33,3.14-1.45-12.28-2.07-24.64-3.82-36.9-.78-5.57-7.15-7.36-11.75-6.67-36.76,5.47-73.69-3.28-110.57,2.22-4.14.61-7.01,5.35-7.01,9.2-.02,11.75-.24,23.39-1.86,35.05-.25,1.71-.05,3.27.42,4.68-16.8,1.23-33.59,2.57-50.36,4.07-5.18.46-9.55,4-9.55,9.54,0,118.32,7.51,236.87,10.41,355.15,2.98,121.45-10.5,242.7-4.95,364.2.25,5.63,4.18,8.95,9.54,9.54,178.4,19.26,358.11,16.74,537.25,14.72,89.72-1.01,179.44.28,268.99-6.19,87.36-6.32,174.41-16.4,262.12-16.67,5.2-.02,9.54-4.33,9.54-9.56v-16.45c0-233.24-18.44-467.14-1.37-700.17Zm-181.12-41.86h0c30.91,2.93,61.96,3.67,92.96,5.27.86,8.86,1.08,17.73,1.13,26.64-31.93-.3-63.86-.76-95.81-1.32.27-10.2,1.15-20.39,1.71-30.59ZM320.2,23.7c30.54-.55,61.22-3.3,91.75-3.97,37.75-.82,75.5-.74,113.26-.48,74.41.5,148.82,1.21,223.23,1.26,2.27,21.54,1.29,43.79,2.15,65.4,1.2,29.82,2.3,59.62,1.63,89.47-14.23-.32-28.44-.66-42.68-.97-1.92-21.55-2.59-43.3-2-64.91.32-12.55,1.26-28.99-12.86-34.65-18.52-7.41-44.97-6.07-64.71-7.39-29.63-1.99-59.43-1.43-89.1-.83-27.02.54-54.07.65-81.1,1.34-20.76.52-44.11-.67-64.6,3.02-13.88,2.51-22.13,9.12-21.97,23.68.27,25.22,1.32,50.4,1.63,75.61-16.3.09-32.6.25-48.89.47-3.98-48.93-2.22-98.1-5.74-147.06h0Zm370.21,150.3c-98.87-2.2-197.73-4.03-296.55-3.76h0c-.32-19.1-1.5-38.16-1.5-57.25,0-7.3-.05-14.58-.13-21.89-.02-2.3,23.3-2.29,25.92-2.33,40.85-.41,81.81-2.15,122.69-3.04,43.44-.94,87.71-1.75,130.77,4.85,6.14.95,16.04-2.26,16.97,6.77.71,7.14-.25,14.75-.25,21.93.01,18.3.49,36.5,2.09,54.72Zm-610.07-23.61h0c30.89-3.2,61.9,2.35,92.88-.16.89,8.23,1.5,16.49,2.36,24.73-32.52,1.44-65.02,3.25-97.48,5.48,1.35-10.03,2.01-19.99,2.23-30.06Zm993.52,746.8c-82.08.89-163.7,9.71-245.47,16.01-89.48,6.89-179.1,5.65-268.75,6.64h-.02c-178.51,1.96-357.54,4.73-535.36-13.72-4.43-116.09,8.11-231.96,5.44-348.02-2.72-117.9-10.18-236.02-10.52-353.96,349.85-30.1,702.13-5.16,1052.7-4.68-15.91,229.88,1.98,460.57,1.98,690.68v7.05Z"/>
      <path d="m775.53,499.41h0c1.32-11.68,6.6-28.69-6.59-32.94-5.26-2.12-25.03,2.12-32.94,2.12-31.61,2.12-61.91-3.19-93.54-2.12l-.73-.6c-2.26-13.48,0-29.2,0-43.78,0-20.22-1.13-39.29-1.13-59.5,0-16.84,5.59-28.81-10.12-30.31-8.51-.8-21.32-1.12-30.3-1.12-55.01,0-110.38-1.18-165.38-.06-.76,43.48,2.62,89.87.36,133.64l-2.23.85c-39.3-4.37-96.54-7.49-135.83-1.25l-2.95,1.52c-3.36,48.28,2.24,96.53,2.24,145.95,0,21.32,4.5,23.55,26.95,23.55h32.56c22.44,0,44.89-2.23,67.34-1.11,4.49,0,8.99,1.11,13.47,1.11,2.26,28.38-1.55,73.25-.42,100.22,0,7.11-2.24,32.16,1.13,39.25,4.5,7.11,23.58,5.7,30.3,5.7,43.78,0,87.56-5.7,131.34-5.7,7.86,0,31.43,5.7,38.17,0,7.85-8.51,4.5-30.76,4.5-44.93-1.13-29.81.02-63.1.71-95.81,26.34-1.05,42.18,1.33,69.85,1.33,14.48-1.05,32.93,1.05,48.76-1.05,22.39-3.21,18.45-9.59,15.8-27.64-3.94-36.15-3.94-72.27-1.32-107.35Z"/>
    </g>
  </g>
</svg>