<svg xmlns="http://www.w3.org/2000/svg" viewBox="0 0 173.26 172.26"><defs><style>.cls-1{fill:#005bac;}.cls-1,.cls-2,.cls-3{stroke:#000;stroke-width:2px;}.cls-1,.cls-2,.cls-3,.cls-7{stroke-miterlimit:10;}.cls-2{fill:#68a3d8;}.cls-3{fill:#fdedbe;}.cls-4{fill:#f8d3c8;}.cls-5{fill:#132b88;}.cls-6{fill:#fff;}.cls-7{fill:none;stroke:#132b88;}</style></defs><g id="레이어_2" data-name="레이어 2"><g id="레이어_1-2" data-name="레이어 1"><polygon class="cls-1" points="86.63 1.26 172.1 66.19 139.46 171.26 33.81 171.26 1.16 66.19 86.63 1.26"/><polygon class="cls-2" points="86.1 47.26 148.6 94.24 124.73 170.26 47.48 170.26 23.6 94.24 86.1 47.26"/><ellipse class="cls-3" cx="82.6" cy="133.76" rx="38" ry="35.5"/><ellipse class="cls-4" cx="108.1" cy="144.26" rx="9.5" ry="9"/><circle class="cls-4" cx="55.6" cy="145.26" r="9"/><ellipse class="cls-5" cx="89.1" cy="131.26" rx="3.5" ry="4"/><ellipse class="cls-5" cx="72.1" cy="131.26" rx="3.5" ry="4"/><ellipse class="cls-6" cx="90.1" cy="122.26" rx="5.5" ry="2"/><ellipse class="cls-6" cx="71.1" cy="122.26" rx="5.5" ry="2"/><ellipse class="cls-5" cx="80.6" cy="138.76" rx="2" ry="1.5"/><path class="cls-7" d="M80.51,139a14,14,0,0,0,.1,2.51,3.48,3.48,0,0,0,.12.56,3.2,3.2,0,0,0,.47.74,4.36,4.36,0,0,0,.5.56,4.62,4.62,0,0,0,2.14.88l1,.22"/><path class="cls-7" d="M80.85,139a13.15,13.15,0,0,1-.1,2.51,2.15,2.15,0,0,1-.12.56,2.86,2.86,0,0,1-.46.74,6.66,6.66,0,0,1-.5.56,4.62,4.62,0,0,1-2.15.88l-1,.22"/></g></g></svg>