<svg xmlns="http://www.w3.org/2000/svg" viewBox="0 0 139.86 141.92"><defs><style>.cls-1{fill:#005bab;}</style></defs><g id="레이어_2" data-name="레이어 2"><g id="레이어_1-2" data-name="레이어 1"><path class="cls-1" d="M139.86,89.92c-4.77,13.94-14.63,24.82-22.38,36.94-10.1,15.79-9,15.13-27.6,15-19.18-.19-17.2,2.61-29.1-15.73-6.34-9.77-12.68-19.54-19.19-29.19-5.49-8.15-6.44-16.19-.43-24.51,2-2.83,3.61-6,5.67-8.81,2.81-3.83,6.72-4,9.53-.13,3.32,4.53,6.23,9.36,9.41,14.2-8.92,1.69-10.47,5.26-5.69,12.52,6,9.16,12.12,18.31,18.29,27.39,5.39,8,16.2,7.75,21.5-.34q6.43-9.81,12.74-19.7c5.75-9,6.34-18.27.48-27.23C98.18,47.44,83,24.8,67.87,2.08,67.76-.2,69.52.55,70.59.54c4.63-.09,9.25,0,13.87,0C90.7.21,95.32,2.5,98.82,8c12,18.81,24.27,37.43,36.62,56,3.08,4.63,3.14,9.91,4.42,14.94Z"/><path class="cls-1" d="M52,0c.53,2.54,2.34,4.36,3.69,6.42C69.75,28,83.83,49.62,98.11,71.09c5.69,8.55,6.62,16.8.23,25.36-1.88,2.53-3.28,5.41-5.1,8-2.95,4.15-6.86,4.37-9.8.33-3.3-4.53-6.21-9.36-9.39-14.22,9-1.62,10.52-5.09,5.71-12.51-9.23-14.22-18.52-28.4-28.23-43.26L41.84,49.12c-4.93,7.32-9.92,14.59-14.76,22-5.42,8.28-6,17.07-.82,25.44,9.43,15.07,19.38,29.81,29.49,45.26-6.51-.18-13,.76-19.49-.64-3.94-.85-6.75-3.46-8.92-6.77C19.68,122.68,12,111,4.43,99.26,2.59,96.37,1.46,93,0,89.92v-12c.36-9.88,6.15-17.26,11.45-24.85Q26.87,31,42,8.75c2.39-3.53,4.85-7,9-8.75Z"/><path class="cls-1" d="M85.92,0c.07.29,2.13.42,2.2.71-6.07.7-14.29-.9-20.25,1.37L64.94,0Z"/></g></g></svg>