<svg xmlns="http://www.w3.org/2000/svg" viewBox="0 0 1213 1593"><defs><style>.cls-1{fill:#6970ff;}.cls-2{fill:#9ab98f;}.cls-3{fill:#fee5ca;}.cls-4{fill:#363;}.cls-5{font-size:16px;fill:#fff;font-family:AdobeMyungjoStd-Medium-KSCpc-EUC-H, Adobe Myungjo Std;}</style></defs><g id="레이어_2" data-name="레이어 2"><g id="레이어_2-2" data-name="레이어 2"><rect class="cls-1" width="1213" height="1593"/><path class="cls-2" d="M267.33,752C163.83,579.4,93.24,446.24,73.87,394.2c-4.4-11.83-12.46-36.4-8.88-66.53,1.48-12.45,5.2-43.79,30.6-65.51,7.18-6.14,8.13-3.57,38.49-18.14,21.8-10.46,32.7-15.69,40.47-21.17,21.46-15.13,18.55-24.53,47.37-57.45,17.75-20.26,27.85-31.79,45.41-40.31,8.33-4,20.49-8.46,57.24-10.08,28.54-1.26,52.06-2.3,84.89,3,15.3,2.48,101.1,17.44,132.26,60.48a94.85,94.85,0,0,1,14.8,32.25,94.36,94.36,0,0,1,0,33.26C551.45,270.66,434.76,475.53,267.33,752Z"/><path class="cls-2" d="M416,535.88c66.81,44.86,120.5,72.58,144.4,81.68A196.83,196.83,0,0,0,616.56,630c5.89.22,10.26.06,12,0,18.15-.64,57.13-.77,145.4,1,10.78-62.53-7.39-95.82-15-107.53-9.53-14.59-25.79-31-39.11-44.46,0,0-18.47-18.65-37.1-34.12-30.1-25-85.39-57.88-167.47-87.89C483.85,417.31,447.42,475.56,416,535.88Z"/><path class="cls-2" d="M519,344.4A1030.42,1030.42,0,0,1,699.27,39c52.49,12.06,74.64,32.91,85.07,50.23,8.76,14.56,12.37,31.82,32.41,55.25,7,8.16,13.09,13.73,20.25,25.12,13.36,21.23,7.24,22.65,16.21,31.14,11.56,10.95,27.35,10.41,68.86,9,20.64-.68,65-.15,66.85,9,.76,3.85,17.81,11.08,8.1,19.08-6.66,5.49-37.93,11.17-47.6,17.08-64.12,39.18-58.65,79.7-116.47,108.5-28.89,14.4-41.35,6.78-58.74,24.11-23.31,23.23-31.25,59-28.35,86.4-37.48-20.92-59.75-51.41-97.23-72.33C608.13,379.06,559.51,367,519,344.4Z"/><path class="cls-2" d="M770,508.07a166,166,0,0,1,15.36,36.12A175.93,175.93,0,0,1,789.45,623H958.4q1-24.63,2.05-49.26H1027l-1-201.4c-20.48,1.09-41.5-3.26-62-2.16-.68,42.69-.82,90.82-1.51,133.51Z"/><path class="cls-2" d="M411,542a590.82,590.82,0,0,0,59,37c6.19,3.39,21.79,10.92,53,26s39.19,18.63,51,22a187,187,0,0,0,44,7q-.5,100-1,200l-332,5q-1-49-2-98Z"/><path class="cls-2" d="M633,635q-2,99.94-4,199.88L807,840c1.33-69.36-3.33-135.64-2-205C745.67,636,692.33,634,633,635Z"/><path class="cls-2" d="M818,634q-1,101.25-2,202.48l152,1c10.93-6.62,29.1-15.57,52-16.36,31-1.07,47,13.6,65,16.36,24,3.68,62-12.18,121-108.39l-62-85.9-93,72.6L1048,633Z"/><path class="cls-2" d="M290,865c435.37-3.38,752.3-5.69,775-6,2.89,0,11.67-.19,20,5,12.8,8,16.54,23.55,18,30,11.81,52.29-26.93,146.68,2,189,20.8,30.43,61.9,12.44,85,34,32.84,30.65-40.48,173.24-197,438-251.67-134.33-445.33-311.67-697-446Z"/><path class="cls-2" d="M216,1051a18.42,18.42,0,0,0,2.82,6.58A17.3,17.3,0,0,0,222,1061s4.85,3.71,28,2c8.23-173.2,9.38-234.79,8-250a183.68,183.68,0,0,1,0-35c1-11,3.4-19.2,3-20C247,730,142,568,74,422c-39.78-85.41-5-117.76-29-108-14.43,5.86-18.69,37.89-16,58,4.53,33.92,29.35,37.67,34,70,5,35.09-21.28,51-12,76,8.27,22.31,39.06,12.58,52,35,11.94,20.68-4.93,40.66-6,72-1.16,33.93,20.07,43.6,47,98,15.28,30.87,10.78,62.72,31,81a120.43,120.43,0,0,1,17,18c7.56,9.91,8,16.75,17,31,4.52,7.13,7.84,11.08,10,14,17.55,23.71,30.2,75.75,9,109-5.46,8.56-7.81,7.49-12,16C216,992,206.78,1010.74,216,1051Z"/><polyline class="cls-3" points="546 320 567 360 598 344 617 352 634 380 674 357 652 315 621 334 603 327 587 298 548 320"/><polygon class="cls-3" points="573 243 636 277 655 245 591 208 573 243"/><polygon class="cls-3" points="611 177 685 218 703 247 724 237 703 201 625 156 611 177"/><polygon class="cls-3" points="654 128 719 163 742 201 762 191 735 145 666 108 654 128"/><polygon class="cls-3" points="683 70 764 117 788 156 808 144 782 97 694 50 683 70"/><polygon class="cls-3" points="810 195 837 242 919 241 918 213 849 214 831 182 810 195"/><polygon class="cls-3" points="748 295 764 323 825 323 826 348 753 348 728 306 748 295"/><polygon class="cls-3" points="371 242 372 306 468 307 468 242 371 242"/><polygon class="cls-3" points="207 271 207 310 311 311 312 272 207 271"/><polygon class="cls-3" points="157 299 157 345 186 345 186 300 157 299"/><polygon class="cls-3" points="92 317 92 347 145 347 145 316 92 317"/><polygon class="cls-3" points="94 379 94 410 238 410 238 378 94 379"/><polygon class="cls-3" points="270 362 270 395 384 395 384 379 380 379 380 363 270 362"/><rect class="cls-3" x="148" y="433" width="39" height="66"/><polygon class="cls-3" points="342 431 342 453 302 453 302 444 298 444 297 436 302 436 302 430 342 431"/><polygon class="cls-3" points="355 439 354 519 165 519 165 533 175 534 175 549 373 548 374 533 384 533 384 476 379 475 379 465 383 465 387 462 386 438 355 439"/><polygon class="cls-3" points="134 599 133 673 166 673 166 599 134 599"/><polygon class="cls-3" points="333 704 332 824 408 825 409 705 333 704"/><polygon class="cls-3" points="463 511 445 543 560 608 578 576 566 570 573 560 569 557 573 548 591 534 583 525 572 519 557 514 553 535 548 545 544 543 537 554 463 511"/><polygon class="cls-3" points="512 413 506 411 510 401 517 398 509 393 517 377 559 400 576 397 579 409 603 403 617 453 584 435 480 464 512 413"/><polygon class="cls-3" points="634 420 634 445 627 458 635 480 605 534 611 537 598 559 624 557 664 485 665 446 656 442 654 430 634 420"/><polygon class="cls-3" points="961 395 962 422 993 422 993 457 981 457 981 484 986 485 987 505 983 505 983 500 960 501 960 576 1017 577 1016 549 993 549 993 486 1023 486 1023 394 961 395"/><polygon class="cls-3" points="812 512 813 534 826 535 826 574 896 574 896 577 920 578 919 519 885 518 885 512 812 512"/><polygon class="cls-3" points="963 646 962 685 1025 685 1025 656 1040 656 1040 640 1010 640 1010 646 963 646"/><polygon class="cls-3" points="954 725 955 751 1010 748 1010 723 954 725"/><polygon class="cls-3" points="1049 738 1105 803 1197 722 1140 656 1049 738"/><polygon class="cls-3" points="816 670 817 697 892 712 892 739 897 737 898 769 939 770 937 738 944 735 943 669 816 670"/><rect class="cls-3" x="639" y="653" width="107" height="97"/><path class="cls-4" d="M527,797l-1-15h-2V737h3V724l9-3-4,15h4l9-21,22-12,16,11,7,11,3,4s13,28-1,62l-2,3s-7,16-22,20l-21-9-10-20h-7l5,12Z"/><text class="cls-5" transform="translate(560.92 765.97)">?</text><path class="cls-4" d="M197,584c0,1-.06,3.25,0,6,.47,21,13.43,41.66,23.23,62.08,11.13,23.17,20.32,45.12,41.29,49.73a48.28,48.28,0,0,0,20.88,0c13.35-3,28.54-31.87,38.52-50.74,12.62-23.87,23.66-40.49,27.9-59,.95-4.15-2.16-7.36-2.84-9.07Z"/><rect class="cls-3" x="324" y="894" width="149" height="87"/><rect class="cls-3" x="324" y="990" width="150" height="87"/><rect class="cls-4" x="492" y="867" width="187" height="152"/><polygon class="cls-3" points="711 874 714 982 728 983 731 1192 740 1202 740 1337 938 1343 938 1192 990 1192 987 1211 1039 1215 1030 871 711 874"/></g></g></svg>